<svg xmlns="http://www.w3.org/2000/svg" width="200" height="50" viewBox="0 0 426.683 84.791"><defs><style>.cls-22{fill:#fff}.cls-55{fill:#7f8180}</style><clipPath id="clip-path"><circle id="Ellipse_1" data-name="Ellipse 1" cx="42.395" cy="42.395" r="42.395" transform="translate(132.167 362.542)" fill="none"/></clipPath></defs><g id="Group_7" data-name="Group 7" transform="translate(-615 -1197)"><path id="Path_48" data-name="Path 48" class="cls-22" d="M293.325 423.416a19.911 19.911 0 0 1-7.385-7.592 23.07 23.07 0 0 1 0-21.716 20.1 20.1 0 0 1 35.2 0 23.07 23.07 0 0 1 0 21.716 19.992 19.992 0 0 1-7.354 7.592 20.464 20.464 0 0 1-20.462 0zm19.029-2.162a17.161 17.161 0 0 0 6.364-6.656 21.034 21.034 0 0 0 0-19.264 17.167 17.167 0 0 0-6.364-6.656 17.4 17.4 0 0 0-17.6 0 17.419 17.419 0 0 0-6.364 6.685 20.7 20.7 0 0 0 0 19.207 17.409 17.409 0 0 0 6.364 6.684 17.363 17.363 0 0 0 17.6 0zm26.1 3.093a13.269 13.269 0 0 1-5.371-5.34 16.764 16.764 0 0 1-1.926-8.261v-26.153h2.8v26.153q0 6.07 3.385 9.515a13.607 13.607 0 0 0 18.1 0q3.384-3.441 3.384-9.515v-26.153h2.8v26.153a16.786 16.786 0 0 1-1.926 8.261 13.281 13.281 0 0 1-5.371 5.34 17.815 17.815 0 0 1-15.879 0zm62.928 2.043l-21.762-27.567a3.376 3.376 0 0 0-6.025 2.092v24.544h-2.8v-41.8h.292l21.763 27.566a3.375 3.375 0 0 0 6.024-2.092v-24.54h2.8v41.8zm17.716-2.974a20 20 0 0 1-7.355-7.592 23.231 23.231 0 0 1-.028-21.744 19.841 19.841 0 0 1 17.63-10.3 19.911 19.911 0 0 1 14.3 5.895l-1.4 1.929a18.466 18.466 0 0 0-12.96-5.311 16.826 16.826 0 0 0-8.787 2.389 17.2 17.2 0 0 0-6.333 6.685 20.916 20.916 0 0 0 0 19.207 17.19 17.19 0 0 0 6.333 6.684 16.785 16.785 0 0 0 8.787 2.395 17.036 17.036 0 0 0 12.351-5.3 3.36 3.36 0 0 0 .958-2.384v-5.522a3.377 3.377 0 0 0-3.376-3.376h-11.1v-2.511h13.9a3.376 3.376 0 0 1 3.376 3.376v8.889a3.364 3.364 0 0 1-.767 2.172 20.334 20.334 0 0 1-6.355 5.06 20.3 20.3 0 0 1-19.178-.641zm111.715-1.333v-34.115a3.376 3.376 0 0 1 3.376-3.375h20.86a3.376 3.376 0 0 1 3.376 3.375v1.188a3.376 3.376 0 0 1-3.376 3.375h-11.52a3.376 3.376 0 0 0-3.376 3.376v2.883a3.377 3.377 0 0 0 3.376 3.376h9.185a3.376 3.376 0 0 1 3.376 3.375v.6a3.376 3.376 0 0 1-3.376 3.376h-9.185a3.376 3.376 0 0 0-3.376 3.375v1.25a3.376 3.376 0 0 0 3.376 3.375h11.949a3.376 3.376 0 0 1 3.372 3.528l-.054 1.187a3.375 3.375 0 0 1-3.372 3.224h-21.239a3.377 3.377 0 0 1-3.376-3.373zm-68.043.862h-2.438a3.375 3.375 0 0 1-3.376-3.375v-9.126a3.376 3.376 0 0 1 3.376-3.376h8.518l.961-2.508h-9.479a3.375 3.375 0 0 1-3.376-3.375v-10.7a3.375 3.375 0 0 1 3.376-3.375h16.163l.962-2.513h-19.932a3.376 3.376 0 0 0-3.376 3.375v34.115a3.377 3.377 0 0 0 3.376 3.376h4.275zm60.278-39.459l-17.209 17.465a3.375 3.375 0 0 1-4.808 0l-1.867-1.894a3.375 3.375 0 0 0-5.556 1.162l-7.91 20.656a3.376 3.376 0 0 0 3.152 4.583 3.377 3.377 0 0 0 3.376-3.376v-9.412a3.375 3.375 0 0 1 5.742-2.406l5.058 4.975h.818l5.055-4.974a3.376 3.376 0 0 1 5.743 2.407v9.41a3.376 3.376 0 0 0 3.375 3.376h2.416a3.376 3.376 0 0 0 3.375-3.376v-38.6zm-259.272 39.459a3.376 3.376 0 0 1-3.376-3.375v-6.149c.061-3.461.128-8.41.128-13.471 0-5.267-.119-9.833.31-14.821l.008-.092c0-.39-.1-.444-.518-.444h-1.542c-.625 0-.748.18-.8.462a69.856 69.856 0 0 0-.4 7.094v23.178l.01.009v6.747a3.374 3.374 0 0 0 3.374 3.375h22.194v-2.513z" transform="translate(482.833 834.458)"/><path id="Path_49" data-name="Path 49" class="cls-22" d="M170.4 434.164a.848.848 0 0 1-.842-.855l.033-2.9a.828.828 0 0 1 .834-.818 75.721 75.721 0 0 0 45.451-15.145 42.4 42.4 0 0 0-78.6-29.692 110.031 110.031 0 0 1 43.376-9.459c.017 0 .021-.011.042-.011l.8-.021a.479.479 0 0 1 .549.549v.84a.563.563 0 0 1-.613.561 108.128 108.128 0 0 0-45.5 10.282 42.4 42.4 0 1 0 77.616 34.136 80.262 80.262 0 0 1-43.146 12.533zm13.7-59.4c.591-.176.453-.19 1.257.55.7.668.262.561 1.207.507.858-.061 2.136.085 2.792.032.019-.513-.92-2.687-1.032-3.444h.52c.3.006.245-.023.448.294.458.676 1.924 2.841 2.243 3.215a11.157 11.157 0 0 1 2.9.284c.224.129.571.372.356.626-.538.615-2 .376-3.007.33-.4-.02-.31.008-.561.334-.28.347-2.232 2.909-2.433 2.989-.079.015-.621-.019-.729-.018a8.593 8.593 0 0 1 .321-.867l.65-1.676a5.63 5.63 0 0 0 .314-.853c-.469 0-.924-.025-1.407-.03-2.4-.033-1.741-.484-2.7.336-.547.449-.718.8-1.239.43a2.654 2.654 0 0 0 .094-3.041zm-16.844 59.7c-.987.281-.758.307-2.083-.94-1.146-1.126-.426-.94-2-.868-1.43.086-3.555-.181-4.649-.1-.041.853 1.482 4.491 1.653 5.754-.3 0-.54 0-.865-.018-.5-.016-.409.033-.741-.5-.749-1.135-3.15-4.768-3.673-5.4-1.081-.067-4.037-.064-4.826-.526-.371-.219-.945-.632-.58-1.049.908-1.015 3.343-.589 5.012-.493.672.041.516-.009.941-.546.473-.573 3.771-4.8 4.108-4.932.132-.023 1.033.044 1.213.045a14.352 14.352 0 0 1-.551 1.438L159.1 429.1a9.232 9.232 0 0 0-.538 1.414c.781.006 1.537.059 2.342.077 3.987.1 2.89.838 4.508-.508.919-.738 1.212-1.313 2.072-.694a4.418 4.418 0 0 0-.234 5.068z" transform="translate(482.833 834.458)"/><g id="Group_6" data-name="Group 6" transform="translate(482.833 834.458)" opacity=".3"><g id="Group_4" data-name="Group 4" clip-path="url(#clip-path)"><g id="Group_3" data-name="Group 3"><path id="Path_3" data-name="Path 3" class="cls-55" d="M160.089 375.134c-.249.049-.313-.467-.477.2a4.092 4.092 0 0 1-.521 1.522c-.4.712-.379 1.178.357.417s.441-1.374.736-.761.676.638.718.074a2 2 0 0 0-.189-.865c.056 0 .107.006.189.006.951 0 1 .122 1.049-.2s-.522-.711-.522-.711a3.22 3.22 0 0 1-.754.676.483.483 0 0 1 0-.161c.098-.369-.586-.197-.586-.197z"/><path id="Path_4" data-name="Path 4" class="cls-55" d="M171.94 372.753l-.528-.049-.129.632.23.166.427-.429z"/><path id="Path_5" data-name="Path 5" class="cls-55" d="M166.619 378.314c-.172.024-.341.054-.513.079-.126.4-.158.48-.158.48l-.469.755s-.653.046 0 .424a2.9 2.9 0 0 0 1.031.45c.11.01.519.12.168-.4s-.683.368-.361-.774c.124-.445.225-.774.302-1.014z"/><path id="Path_6" data-name="Path 6" class="cls-55" d="M170.4 373.644v-.7c-.989 0-1.031.467-.909.589s.074.04.246.106a2.15 2.15 0 0 0 .663.005z"/><path id="Path_7" data-name="Path 7" class="cls-55" d="M142.268 377.877c1.841-1.565 2.037-1.442 2.6-2.351a5.1 5.1 0 0 1 .933-1.2 4.149 4.149 0 0 1 .663-.822 7.725 7.725 0 0 0 .773-.7c.356-.319 1.387-.908 1.951-1.3s2.209-1.374 1.006-.908a12.8 12.8 0 0 0-4.859 2.909 25.953 25.953 0 0 0-3.387 3.669c-.49.684.32.703.32.703z"/><path id="Path_8" data-name="Path 8" class="cls-55" d="M200.066 377.815a3.871 3.871 0 0 0 .626.607s.055-.368.865.258a4.593 4.593 0 0 1 1.472 2.043 5.874 5.874 0 0 1 .755 1.694 6.361 6.361 0 0 0 .424 1.656c.294.589-.387.166.349 1.013s.479.7.957 1.049 1.418 1.712.589.35-.791-1.252-.828-1.362.074-.074-.166-.369a2.53 2.53 0 0 1-.349-.92s-.737-1.491-.277-1.141 1.123.386.553-.129-.736-.166-.663-.865.884.11-.294-1.2-1.013-1.38-1.639-1.8-.975-.921-1.325-.884-1.491-.736-.957-.939.35.056-.515-1.031-1.412-1.276-1.05-.625c.286.513.663.7 0 .773s-.654-.24.189.57a14.73 14.73 0 0 1 1.284 1.252z"/><path id="Path_9" data-name="Path 9" class="cls-55" d="M212.754 402.6c0 .736.05.91.05 1.262a6.459 6.459 0 0 0 .036.662l.062.275a3.367 3.367 0 0 0 .331-1.14c-.037-.356-.074-.578-.074-.578s.123-.47.2-.254-.1.879.221.7.576-.185.392-.577a1.073 1.073 0 0 1-.159-.528c-.037-.209-.368-.142-.172-.415s.159-.333.159-.333l-.662-.025s.061.416 0 .5a1.1 1.1 0 0 0-.106.307s-.278-.597-.278.144z"/><path id="Path_10" data-name="Path 10" class="cls-55" d="M213.448 416.12c.442-.368.791-.589.828-.847a7.913 7.913 0 0 1 .331-1.546 10.422 10.422 0 0 0 .35-1.178l.423-1.491s-.086-.436-.2 0a12.492 12.492 0 0 1-.368 1.491c-.2.5-.184.626-.4 1.1s-.92 1.819-.92 1.819.46-.27-.774.769a8.155 8.155 0 0 0-1.556 1.444c.71-.452 1.415-.91 2.109-1.385a1.843 1.843 0 0 1 .177-.176z"/><path id="Path_11" data-name="Path 11" class="cls-55" d="M215.724 406.573a1.594 1.594 0 0 0 .086-.258c0-.061-.184-.184-.184-.184-.2.417-.27.54-.246.589s.033.074.121.086.211-.184.223-.233z"/><path id="Path_12" data-name="Path 12" class="cls-55" d="M215.724 404.806a2.258 2.258 0 0 0 .491-1.227 3.173 3.173 0 0 1 0-.982 3.944 3.944 0 0 0-.368-1.644s-.021-.515-.123 0c-.271 1.374-.5 2.478-.5 2.478l.249 1.031s-.166.738.251.344z"/><path id="Path_13" data-name="Path 13" class="cls-55" d="M194.838 421.615c.543-.571 1.224-.774.138-1.271s-1.319-.668-1.491-.414a1.022 1.022 0 0 0-.073 1.252c.349.506.193.469.423.745s.46.258 1.003-.312z"/><path id="Path_14" data-name="Path 14" class="cls-55" d="M211.994 400.965a.931.931 0 0 0-.589-.344c-.234.135-.344.209-.16.418a.942.942 0 0 0 .394.27s.502-.074.355-.344z"/><path id="Path_15" data-name="Path 15" class="cls-55" d="M214.545 404.593c-.013-.577-.161-.237-.161-.753v1.506c0 .037.056.433.043.392a7.1 7.1 0 0 0 .118-1.145z"/><path id="Path_16" data-name="Path 16" class="cls-55" d="M210.743 412.4l-.148.573a.728.728 0 0 0-.258 1.013 9.634 9.634 0 0 0 .669 1.16c.159.166-.02.81.68-.349s.7-.534.7-1.583v-1.878s.1-.515.225-1.251.251-.958.251-1.151a11.9 11.9 0 0 1-.307-1.3c-.037-.552.794-1.509.113-1.316s-.752-.193-.872 0c-.6.971-.041.824-.152 1.818a26.636 26.636 0 0 1-.628 2.9z"/><path id="Path_17" data-name="Path 17" class="cls-55" d="M207.861 395.127a2.086 2.086 0 0 0 .36.322s.156.11.174-.3a3.648 3.648 0 0 1 .074-.635s.082-.082-.175-.4-.341-.432-.341-.432a.572.572 0 0 0-.1-.157c-.071-.073-.584-.628-.6-.368a1.767 1.767 0 0 0 .129 1.123 2.736 2.736 0 0 0 .479.847z"/><path id="Path_18" data-name="Path 18" class="cls-55" d="M212.021 399.029c.132-.371-.347-.6-.322-.334.034.371-.27.33 0 .668s.189.037.322-.334z"/><path id="Path_19" data-name="Path 19" class="cls-55" d="M213.705 408.72a10.289 10.289 0 0 0 0 1.307 3.493 3.493 0 0 1 .166 1.27c-.018.884-.018.9-.018 1.142s.012.883.162.128-.07-.368.224-.938.4-.276.46-1.013a3.857 3.857 0 0 0 0-1.086c-.036-.294.2-.57.258-1.067s.5-1.454.111-1.05-.681.056-.7 1.068-.018 1.436-.055 1.638-.258-.055-.258-.055-.055-1.454-.055-1.583.607-1.583.607-1.583-.189-1.773-.257-.92a4.132 4.132 0 0 1-.2 1.4c-.108.354-.227.655-.314.89a1.658 1.658 0 0 0-.131.452z"/><path id="Path_20" data-name="Path 20" class="cls-55" d="M208.221 416.985c-.038-.258-.056-.46-.24-.534a4.24 4.24 0 0 0-.994.019c-.81.147.184.294-.939.147s-1.288-.147-1.288-.147.11-.516-.81 0-2.743-.019-.552.828 1.969.534 2.5 1.031.957.828.957.828a3.135 3.135 0 0 0 .957.424c.066.017.109.017.164.028.5-.289 1-.586 1.5-.885.01-.064.022-.115.029-.193.055-.607-.037-.662 0-.9s1.14-.184.018-.331-1.264-.057-1.302-.315z"/><path id="Path_21" data-name="Path 21" class="cls-55" d="M210.029 398.817a2.919 2.919 0 0 0 .664 1.129l.393.221s.883.123.417-.417a2.266 2.266 0 0 1-.614-1.031c-.049-.221-.171-.392-.257-.761a3.724 3.724 0 0 0-.774-1.055 1.027 1.027 0 0 0-.147 1.055 2.086 2.086 0 0 1 .318.859z"/><path id="Path_22" data-name="Path 22" class="cls-55" d="M164.678 381.422c-.34.191-.479.111-.326.343s-.038.406.246.25a2.056 2.056 0 0 0 .5-.406s.093 0 0-.187-.42 0-.42 0z"/><path id="Path_23" data-name="Path 23" class="cls-55" d="M212.263 399.888a1.229 1.229 0 0 1 .08.661c.049.025.047-.2.047-.2v-.5s-.2-.712-.309-.411c-.103.28-.009-.078.182.45z"/><path id="Path_24" data-name="Path 24" class="cls-5" d="M212.354 401.48a1.249 1.249 0 0 0 .049.518.228.228 0 0 0 .253-.2 2.542 2.542 0 0 0 .1-.49c.013-.148.111-.05 0-.234s-.2-.413-.3-.159c-.169.45-.097.136-.102.565z"/><path id="Path_25" data-name="Path 25" class="cls-55" d="M205.637 402.376c.736.884 1.473 1.227 1.35.368a14.554 14.554 0 0 0-.491-1.988c-.638.908-1.596.737-.859 1.62z"/><path id="Path_26" data-name="Path 26" class="cls-5" d="M156.994 408.315c.392-.073.1-.073.319-.368s-.131-.294-.131-.294a2.527 2.527 0 0 0-.781.147s-.119.368 0 .515.199.074.593 0z"/><path id="Path_27" data-name="Path 27" class="cls-55" d="M149.735 390.847a1.113 1.113 0 0 0 .074.227l.423-.092s.092-.153.16-.288-.086-.546-.086-.546c-.258.049-.289-.013-.3.214s.031.3 0 .362-.253.123-.271.123z"/><path id="Path_28" data-name="Path 28" class="cls-55" d="M151.518 407.331c.239.046.791.193.791.193a1.527 1.527 0 0 0 .635 0c.221-.083-.055-.111-.166-.2s-.221-.037-.966-.24-.028-.132-.69-.184c-.948-.075.156.385.396.431z"/><path id="Path_29" data-name="Path 29" class="cls-55" d="M150.468 404.726c-.276.341-.239.208-.193.578.04.317.062.359.074.445a1.465 1.465 0 0 1 .119.109c.368.368.4.4.424.4a.814.814 0 0 0 .184-.359c.009-.11-.056-.154 0-.247a.564.564 0 0 1 .165-.162c.028-.023-.073-.235-.128-.281s-.645-.483-.645-.483z"/><path id="Path_30" data-name="Path 30" class="cls-55" d="M150.356 405.794a.39.39 0 0 0-.007-.045c-.176-.144.016.151.007.045z"/><path id="Path_31" data-name="Path 31" class="cls-55" d="M145.211 400.327a1.687 1.687 0 0 0 .247-1.092c-.527.343-.539.036-.453.54s-.139 1.141.206.552z"/><path id="Path_32" data-name="Path 32" class="cls-55" d="M146.5 387.847c.257-.258.625-.35.681-.571l.055-.221-.24-.239s-.183-.313-.128-.35a4.153 4.153 0 0 0 .313-.368c-.976.166-.718-.2-1.05.387s-.2.368-.331.589a4.64 4.64 0 0 0-.28.754s-.051.037-.125.313a5.159 5.159 0 0 1-.179.534.992.992 0 0 1 .142.5 1.433 1.433 0 0 1-.239.442l-.255.11s-.168-.165-.279 0-.055.166-.2.424a3.913 3.913 0 0 1-.313.46 1.719 1.719 0 0 0-.663.276 1.344 1.344 0 0 0-.254.313c-.1.166-.254.294 0 .331s1.055.184 1.055.184l.754.129s-.474.755.136 0a5.2 5.2 0 0 1 .831-.9s.2-.055.092-.184-.368-.386-.368-.386.11-.2.239-.479.2-.184.2-.5-.019-.607-.019-.607-.4.294 0-.2.169-.483.425-.741z"/><path id="Path_33" data-name="Path 33" class="cls-55" d="M175.744 370.274c.982.442.736.859 1.08.442s.417-.294.417-.687-.736-.859-.736-.859a.91.91 0 0 0-.246.736s-1.497-.073-.515.368z"/><path id="Path_34" data-name="Path 34" class="cls-55" d="M151.023 390.81c.05-.055.105-.049.105-.1a3.545 3.545 0 0 0-.381-.442.6.6 0 0 0-.122.491 1 1 0 0 0 .288.117.144.144 0 0 0 .11-.066z"/><path id="Path_35" data-name="Path 35" class="cls-55" d="M177.094 369.17c.147.123.1.435.343.242s.344-.331.344-.446-.54-.508-.54-.508c-.515.242-.294.589-.147.712z"/><path id="Path_36" data-name="Path 36" class="cls-55" d="M176.326 365.62s-.318.3.179.35a1.222 1.222 0 0 0 .884-.083c.386-.156-.065-.267-1.063-.267z"/><path id="Path_37" data-name="Path 37" class="cls-55" d="M173.188 439.436c-.126 1.025-.119.441-.806 1.1a5.079 5.079 0 0 1-1.6 1.006c-.2.1-.621.246-.224.589s1.329.859 1.157 1.031a7.081 7.081 0 0 0-.687.589c-.344.368-.761.172.27.687s1.244.614 1.886.589 1.3-.073 1.3-.834a12.787 12.787 0 0 1 0-1.424c.049-.245-.073-.76 0-.883s-.049-.736.221-.712 1.006.515.344-.27-1.816-1.837-1.861-1.468z"/><path id="Path_38" data-name="Path 38" class="cls-55" d="M175.357 364.512c-.051.011.167-.016 0 0z"/><path id="Path_39" data-name="Path 39" class="cls-55" d="M159.091 370.495a6.928 6.928 0 0 0-.625-.589 6.656 6.656 0 0 0-.491-.221 3.258 3.258 0 0 0-.81-.122c-.27.024.074-.35-.491 0l-.564.346c-.785 1.154-.221.982-1.865 1.669s-2.9 1.325-2.9 1.325a6.288 6.288 0 0 0-2.111.761c-.859.565-1.055.54-2.111 1.276a9.627 9.627 0 0 0-2.163 2.406c-.291.417-1.027.957.985 0s1.915-1.4 2.307-.933.319.785.884.638 1.326-.344 1.473-.1.294 1.2.638.27.245-1.09.417-1.073a3.073 3.073 0 0 0 1.055-.154c.491-.148-.2.049.785-.27a13.377 13.377 0 0 0 1.4-.516s-.221.2.639-.343.76-.516 1.079-.712a9.232 9.232 0 0 1 .908-.442 5.829 5.829 0 0 1 1.052-.27 4.758 4.758 0 0 0 .506-.073s.455-.172.111-.368a.884.884 0 0 1-.343-.835c.049-.073.2-.024.343-.245s.451-.368.41-.516.335.025 0-.343a5.057 5.057 0 0 0-.518-.566z"/><path id="Path_40" data-name="Path 40" class="cls-55" d="M142.947 389.522l-.208.313s.217.313.416.35a.642.642 0 0 0 .648-.166 3.019 3.019 0 0 0 .407-.644c.12-.221-.138-.056.12-.221s.4-.162.441-.3.193-.6.193-.6l-.1-.755c-.334.129-.555.239-.573.4s.092.4-.166.2-.166-.53-.368-.265l-.4.522s-.269.111-.2.2.365.184.272.4a2.247 2.247 0 0 1-.482.566z"/><path id="Path_41" data-name="Path 41" class="cls-55" d="M148.735 379.65c-.178-.031-.473-.08-.454-.129a.343.343 0 0 1 .043-.086 1.155 1.155 0 0 1 .251-.178l-.2-.276c-.331-.816-.491.092-.436.19a1.338 1.338 0 0 1 .062.4 2.051 2.051 0 0 0-.5.313 4.948 4.948 0 0 0-.221.736.262.262 0 0 0 .1.224c.676-.223 1.351-.446 2.032-.656v-.053a3.02 3.02 0 0 0-.677-.485z"/><path id="Path_42" data-name="Path 42" class="cls-55" d="M177.241 364.415c-.438-.181-.9-.393-1.255-.52a1.821 1.821 0 0 1 .556.06s.552.036 2.374.165.019-.129-1.135-.589a47.286 47.286 0 0 0-5.27-.4 38.61 38.61 0 0 0-10.364 1.565 29.415 29.415 0 0 0-6.313 2.43c-1.326.736-.81.607-2.227 1.337s-1.16 1.037-.295.508.019.235.847.2-.055.1-.129.141-.515.35-1.2.718-.46.221-.846.258-1.289.883-1.62 1.067a11.022 11.022 0 0 0-1.9 1.123c-.074.2.7-.147 1.362-.534s-.184.479.3.442.644-.534 1.877-1.1a11.779 11.779 0 0 0 3.148-1.694c1.288-1.012 1.38-.478 1.6-.994s.313-.11.258.147.166.516.607.553a1.742 1.742 0 0 1 .829.349s.423.092 1.3.387.3-.092 1.236-.617.5-.469.349-1.279-1.435.626-1.675.147a.6.6 0 0 1-.08-.357c.1-.037.223-.079.38-.131.791-.262.142-.1 1.247-.7s.027-.027-.713.074l-.868.432-.094-.087s-.217 0-.514-.006c.35-.177.246-.165.732-.532.518-.391-.237-.06-.738-.023-.437.032-.494.082-.854.52a6.211 6.211 0 0 1-.669-.069c-.59-.111.644-.129.644-.129l-.24-.221s.111-.074.553-.35a3.252 3.252 0 0 1 1.3-.644c.881-.258 1.788-.534 1.471-.331a6.838 6.838 0 0 0-.935.589c-.294.257-.294.294-.294.294l1.307-.184a3.745 3.745 0 0 1 1.841-.534 10.557 10.557 0 0 0 1.472-.092l.331-.46a8.806 8.806 0 0 1-1.583 0c-.994-.074-.22-.055 0-.184a6.44 6.44 0 0 1 2.349-.16c1.454.037.865-.387 4.455-.44s1.417.366 3.884.09c.852-.1 1.193-.131 1.318-.142a5.12 5.12 0 0 1 .264-.042c.475-.069.469-.1.37-.163a1.752 1.752 0 0 0 .235.034 11.044 11.044 0 0 0 1.344.249v-.014a1.444 1.444 0 0 0-.329-.157z"/><path id="Path_43" data-name="Path 43" class="cls-55" d="M144.268 402.094c.16.221.077.331.168.356s.1.552.335 0 .366-.97.447-1.08.572-.861.1-.645-.662 0-.662 0c-.135.375.135-.141-.111.559s-.436.589-.277.81z"/><path id="Path_44" data-name="Path 44" class="cls-55" d="M143.151 400.437c-.036-.122-.368-.233-.368-.233-.1.233-.012.331.061.344s.344.012.307-.111z"/><path id="Path_45" data-name="Path 45" class="cls-55" d="M158.633 437.922l-.086-.14-.191-.29c-.172.018.256.408.277.43z"/><path id="Path_46" data-name="Path 46" class="cls-55" d="M142.636 401.051c.061-.184-.27-.724-.27-.724-.368.147-.65.123-.368.417s.577.491.638.307z"/><g id="Group_2" data-name="Group 2"><g id="Group_1" data-name="Group 1"><path id="Path_47" data-name="Path 47" class="cls-55" d="M169.571 430.409a.818.818 0 0 1 .569-.766 3.327 3.327 0 0 0 .239-.528 7.91 7.91 0 0 0 .647-1.951v-1.4s.31-.331.236-.442.781-.147.008-.11-.291-.322-.917-.014-.384.2-.6.309.194.11-.542.257-.842.074-1.1.221.113.037-.255.147-.477.148-.625.184-.441.074-.441.074a3.089 3.089 0 0 1-.625 0c-.295-.037-.258-.074-.479-.184a5.239 5.239 0 0 0-.552-.221l-.515-.147.4-.221.091-.243c-.042.078-.166.17-.5-.3l-.417-.6c0 .02-.069 0-.467-.257l-1.251-.81s.073.81-.552-.331-1.436-2.43-1.436-2.43l-.7-.478-.257-1.215-.663-1.547-.552-1.03a12.407 12.407 0 0 0-.552-1.657 2.533 2.533 0 0 1-.626-.773 2.745 2.745 0 0 0-.782-.884c-.221-.22-.782-.552-.782-.662v-.773l.451-.332.814 1.767s.462.479.5.332.065-.626.1-.773a4.76 4.76 0 0 1 .273-.589l.154.589s-.033.478-.033.589.554.441.554.441l.7 1.252a1.324 1.324 0 0 1 .148.258 7.836 7.836 0 0 1 .294.847c.037.11.111.147.258.294a2.386 2.386 0 0 0 .332.3 11.031 11.031 0 0 1 .773.957l.184.4.037.736a3.944 3.944 0 0 0 .4.663c.147.147.625.662.625.662a.876.876 0 0 1 .516.258c.184.221.258.147.368.442s-.589.257.221.626a2.515 2.515 0 0 1 .957.589l.258.552s.11-.331.147.515-.074.516.037.847a3.564 3.564 0 0 0 .81.92l.515-.11a5.992 5.992 0 0 0 1.215-.258c.11-.11-1.1.295.847-.368l1.951-.663.368-.184.353-.441.316-.4v-.4a3.451 3.451 0 0 1 .457-.4 1.9 1.9 0 0 1 .854-.442 2.13 2.13 0 0 1 .483-.111s.012-.036.311-.147a2.958 2.958 0 0 1 .805-.11s-.133-.037.015-.4.191-.332.412-.442.519-.037.519-.515-.256-.442 0-.7.443-.073.369-.7-.146-.074.332-.737 1.62-.736.479-1.435a4.51 4.51 0 0 0-1.4-.7c-1.1-.478-.663.221-1.1-.478s-.331-1.583-.626-.884-1.178.847-.92 1.215.957.589-.111.81-1.141-.331-1.362.442-.552.331-.478-.111-.148-.037-.148-.589-.257-1.583-.478-1.215.11 1.362-.221 1.031a13.968 13.968 0 0 1-1.031-1.436c-.11-.147.331.221-.7-.846s-1.03-1.068-.81-1.289.074-.331.369-.442l.294-.11s.737-.331.92 0a3.949 3.949 0 0 0 .516.736c.294.368.626.552.847.847s-.258.221.221.294.589-.036.736.074.368.3.368.3l.4.147a5.622 5.622 0 0 0 .81-.147 9.864 9.864 0 0 0 .847-.516s-.266-.257.18 0a1.308 1.308 0 0 1 .556.516s-.221.147.478.184a7.739 7.739 0 0 0 1.4-.074s1.878-.258 2.172-.368 2.136-.663 2.136-.663l.4-.257s-.258-.589.92.441.847.884 1.178 1.031a3.223 3.223 0 0 1 .883.552c.295.258-.331-.036.295.258a5.2 5.2 0 0 0 .847.4c.11 0 .478.258.7.184s.184-.773 0-1.1-.258-1.178-.037-.81a4.02 4.02 0 0 1 .4 1.546 1.279 1.279 0 0 0 .4.957 15.875 15.875 0 0 1 1.326 1.141 3.057 3.057 0 0 0 1.031 1.583 6.976 6.976 0 0 1 1.067 1.178c.663.773.4.368.663.773a4.982 4.982 0 0 0 .625.847c.185.184.295.552.479.552s.442.184.7-.147-.11.368.258-.331l.368-.7s-.073.111 0-.331-.036-.11.074-.442-.11-.037.11-.331.332-.221.221-.552-.294-.847-.294-.847-.074.589-.037-.3.221-.7-.074-1.141-.552-.773-.552-.773a.6.6 0 0 1 .221-.478l.258-.258s.528 0 .522-.663.509-.257.656-.994.515-1.178.626-1.84.4-.59.552-1.1.245-.761.086-.994.564-.466.6-.54a.824.824 0 0 1 .184-.184s.442.025.552-.233.037-.38.283-.466.65.38.662-.209a3.51 3.51 0 0 1 .049-.7 2.242 2.242 0 0 0 .491.736c.233.147.516.356.7.282s.208-.319.4-.159a1.793 1.793 0 0 1 .2.159 3.221 3.221 0 0 1 .871.678c.221.341.258.359.295.635s.11.681.129.736.257.369.717-.165a10.919 10.919 0 0 1 .81-.921c.111-.073-.055-.478.332-.11s.607.626.607.626l.479.423s-.221-1.012.147.313.294 1.381.423 1.712.442 1.9.5 1.914-.386.148.166.019.718-.129.81.11a5.1 5.1 0 0 1 .184.5 2.553 2.553 0 0 0 .663.755 2.033 2.033 0 0 1 .4.331s.019.239.5.184.59-.073.682-.092.276 0 .331-.073.313-.258.221-.35-.331-.239-.368-.313-.295-.239-.295-.423a2.641 2.641 0 0 0-.129-.59c-.055-.22-.147-.533-.147-.533s.018-.092-.387-.092a4.359 4.359 0 0 0-.754.018l-.2.037s.2.57-.2.073l-.4-.5-.332-.662-.165-.368s-.295.2-.313.368l-.019.166a1.849 1.849 0 0 1-.2-.626c0-.24-.276-1.8-.276-1.933s-.147-.46.055-.607.24-.682.313-.148-.129.773.11.737.516-.129.553-.277a1.2 1.2 0 0 1 .129-.294l.128.092s.074.35.166.276a1.994 1.994 0 0 0 .2-.2.6.6 0 0 0 .184.313c.165.165-.056.092.165.165a.358.358 0 0 0 .387-.037c.073-.055.35-.294.35-.294a.263.263 0 0 1 .331.258 3.4 3.4 0 0 1 0 .662s.129.847.295.019.441-1.307.441-1.51a2.518 2.518 0 0 1 0-.847 3.522 3.522 0 0 1 .406-.92s0-2.117-1.455-2.669-1.767-.368-1.9-.81a4.365 4.365 0 0 1-.221-.92 5.4 5.4 0 0 1 .239-2.135c.313-.4.35-1.086.59-.534s0 .644.239.552.368.074.239-.479-.35-.717.239-1.178.313-1.454.553-1.988-.111-1.8-.074-2.65.055-1.454.055-1.454a5.74 5.74 0 0 0-.423-1.289 7.5 7.5 0 0 0-1.123-2.135 5.72 5.72 0 0 0-.883-.791c-.81-.7-.7-1.252-1.123-1.05s-.387.148-.608.332-.221.865-.349.257-.219-.839-.333-1.272-.17-.277-.115-.495a1.88 1.88 0 0 0 .059-.392l-.163-.312s.253-.415-.079-.069-.461.347-.461.347-.27-.229-.149.065a2.77 2.77 0 0 1 .121.3v.218s.027.035-.056.052a1.394 1.394 0 0 1-.35-.048s-.152-.094-.239-.073-.121.059-.17.059a.925.925 0 0 1-.225-.132s-.2-.083-.18-.145a.821.821 0 0 0 .041-.243 1.5 1.5 0 0 0-.11-.322s-.156-.256-.174-.308-.034-.361-.076-.572.219-.814.4-.264.215.59.354.687a1.152 1.152 0 0 0 .207.124.769.769 0 0 0 .021-.346c-.017-.274-.156-.371-.145-.544s-.156-.558.124-.679-.093-.558.312-.125a3.7 3.7 0 0 1 .44.53 3.371 3.371 0 0 0 .427.385s-.042.111.065 0a1.082 1.082 0 0 0 .191-.26c.01-.031-.045-.173.1-.072s.27.239.27.336a.628.628 0 0 0 .042.2l.214.027.243.111s.295-.11.318.235.05.382.128.5a1.935 1.935 0 0 0 .3.29s.046.051.074.028a3.193 3.193 0 0 0 .05-.525c0-.046.014-.3.019-.349s-.064-.157-.055-.281.078-.428.078-.428.391-.387-1.054-.953-.686-.653-1.169-.529-.455.143-.552-.285a2.764 2.764 0 0 0-.423-1.353c-.359-.442-.552-.368-.82-.764a3.384 3.384 0 0 1-.45-.736c-.01-.1-.415-.35 0-.2s.5.488.487.074l-.009-.414a1.742 1.742 0 0 0-.331-.5 18.828 18.828 0 0 0-2.144-2.66c-1.289-1.252-.4-.939-1.418-1.4a12.3 12.3 0 0 1-1.565-.736c-.147-.129-1.141-.7-.128-.313a13.513 13.513 0 0 1 1.454.607 6.263 6.263 0 0 1 .81.35 7.1 7.1 0 0 0 .644.368 2.963 2.963 0 0 0 .423.184s.46.129.092-.2.424-.387-.442-.479-.993-.184-1.233-.368-.165-.258-.533-.368a10.4 10.4 0 0 1-1.087-.387c-.607-.239.387.074-.736-.313s-1.509-.938-1.123-.386 1.142.478.534.662l-.607.185s.5.644.534.7.147.129-.313.11-.258-.018-.461-.018-.46.018-.552-.4a1.491 1.491 0 0 0-.349-.681s-.166.166-.645-.294-1.8-1.491-1.84-1.547-.442-.313-.387-.7.276-.442.055-.552-.331-.479-.166-.534a.778.778 0 0 0 .277-.166s.147-.073-.221-.331a6.327 6.327 0 0 1-.552-.424s.036.313-.81 0-1.786-.846-1.215-.754 1.288-.019.368-.24-2.448-.625-1.528-.57a6.257 6.257 0 0 1 2.761.791 10.559 10.559 0 0 0 1.97 1.086c.938.332 1.6.479 2.19.645s1.436.331 1.436.331.46 0-.847-.736-.552-.884-2.724-1.381-2.356 0-3.24-.828.037-.368-1.785-.976a15.078 15.078 0 0 0-2.273-.7 2.547 2.547 0 0 0-.93-.166 3.427 3.427 0 0 1-1.2-.258c-.092 0-.7.424-.645 0s.553-.386-.368-.423c-.705-.028-1.255-.323-1.343-.262.008.007 0 .011 0 .014-.013.024 0 .068.058.156.294.442.46-.11.368.571s.92 1.141 1.16 1.2.773-.386.773.129 1.067.92.4.976-1.473-.313-1.013.276 1.491.938.644.975-.9-.478-1.1.4.2.865.368 1.252-.46.221.037.736.681.792-.037.608-.589-.847-1.436-.24.534.368.019.773a5.546 5.546 0 0 1-.939.626c-.46.276-.4-.11-.626.571s-.11 1.233-.571.221-.367-1.307-1.03-1.2-.9-.257-1.16.313-.552-.055-.57.663.184.534-.092.828c-.217.231-.929.941-.906 1.321a111.42 111.42 0 0 1 8.712-.454c.017 0 .021-.011.042-.011l.8-.021a.479.479 0 0 1 .549.549v.84a.563.563 0 0 1-.613.561c-2.994.017-5.959.162-8.892.417a1.955 1.955 0 0 1 .367.259s.957.276 0 .092-.645-.2-1.049-.2a1.065 1.065 0 0 1-.313-.053c-.086.009-.171.021-.257.029a.518.518 0 0 0-.038.208c-.018.479-.018.553.258.645s.81.239.5.257.092.626-.534.074a3.032 3.032 0 0 1-.683-1.128l-.228.025c-.044.212.222.272.175.606-.056.386.2.221.4.626s.478.368.423.626-.129.717.166.478l.081-.069c-.022.029.012.089.139.216.424.424.534.442.461.7s.313-.019-.2.386-.478.056-.478-.092.239-.46-.019-.552-.221-.073-.349-.239.073-.129-.24-.442a2.975 2.975 0 0 1-.5-.755 3.3 3.3 0 0 1-.4-.92c-.073-.276.074-.479-.331-.46a.688.688 0 0 1-.171-.014c-.132.015-.264.028-.4.044-.007.02-.015.036-.022.062a2.942 2.942 0 0 0-.074 1.362c.111.221-.055.239.479.663s1.049.5 1.049.644.019.313-.35.258-.9-.148-1.233-.221-.975-.166-.975-.166-1.418-.571-.884.019.957.607.571.846.092.148-.589.258-.46-.019-.847.129-1.16-.221-1.6.5.091 1.012-.571.975-.792.092-.571-.368.055-.755-.221-.644-.276.074-.386.442a.846.846 0 0 0 .018.736c.111.276.276.442-.055.534s-.589-.055-.865.165-.147.369-.552.718-.516-.349-.681.166-.387 1.141-.645.479.332-.129-.073-1.068-1.454-1.749-.442-1.123.791.847 1.27.718a1.639 1.639 0 0 0 .884-.4c.147-.184.846-.221.2-.791s-.589-.773-1.436-1.068l-.846-.295a2.076 2.076 0 0 0-2.025-.644c-1.27.3-.853.638-2.5 1.669s-1.424.736-2.234 1.522a18.174 18.174 0 0 1-2.4 1.546c-.589.466-1.08.442-1.153 1.178s.22 1.08.638 1.1.81-.711.589.172-.27.049-.2.982-.2 1.2.344 1.178.393.736.982-.245.49-1.031 1.153-1.228.908-.417.761-1.055-.785-.344-.172-.933a9.323 9.323 0 0 1 1.571-1.178c.515-.343.54-.368.687-.638s-.073-.564.564-.785 1.277-.417 1.179.049-.737.515-1.424.957a2.939 2.939 0 0 0-1.031 1.006c-.122.2-.687.688-.491 1.08s-.54.614.491.516 1.031-.123 1.276-.123.59-.393.737.074.687-.516.147.466-.491.687-.54.982-.294.76-.319.564.123-.613-.1-.883a.779.779 0 0 0-.663-.2s-.613-.172-.613.074.294-.417.049.589-.025 1.2-.368 1.055a2.594 2.594 0 0 1-.737-.638s-.613.785-.981 1.374-.393.688-.639.786-.2.1-.466-.049.246-.319-.687-.074-.761.27-1.35-.123-.515.467-.589-.392.2-.663.466-1.252.639-1.5.123-1.276-.613.319-.761.54-.343.27-.417.712.123.809-.245.932-.049-.049-1.031.147-.884.54-.884.54l-1.423.884s-1.178.147-1.35.147-.761-.491-.785.393a6.046 6.046 0 0 1-.761 2.16s.221.859 0 1.2.221.957-.368.54-1.326-2.356-2.086-1.276-.516.663-.81 1.423-.123.344-.393.958-.52.294-.5.932.02.957.02 1.2v.883s-.057.074.336.074.684.2 1.125.245.612.565.956-.147.367-.81.416-.908a1.151 1.151 0 0 1 .625-.687c.516-.27.35-.393.792-.54s.862-.319.911-.712-.637-.957.345-.442.418.982 1.2.516.982-1.5 1.228-.516a7.135 7.135 0 0 1 .27 1.62 2.825 2.825 0 0 0 .564 1.4c.344.54-.343.025.27.982s.884 1.178.737 1.571a.688.688 0 0 1-.737.441c-.269 0-.76-.392-1.006-.245s-.319.123.221.736.417.663.687.2.761-.564 1.007-.932.27-.614.122-.81.221-.491.221-.491.123.1.368.319.614.246.319-.1-.736-.368-.859-.81.1-.712-.245-.785-.614-1.129-.565-1.473-.711-.613-.417-1.1 1.08-1.866 1.056-.884a2.26 2.26 0 0 0 .368 1.62 3.877 3.877 0 0 0 .662 1.178c.246.3.908.835.908 1.08a2.222 2.222 0 0 1-.221.859c-.122.245-.564.27-.1.81s-.245.908.418 1.129a3.38 3.38 0 0 1 1.1.564l.565.344s1.079.54.122-.417-.81-.835-.761-1.2.025-.859.246-.859.515.123.515.393-.024.761.2.294.024-.54.564-.54l.589.54c-.368.344.515.246.221.687s-.27.835-.123.982-.27.5-.049.655.319.131.516.5.343.368.515.515l.172.147s.294.27.441-.1.221-.515.221-.515-.564-.982.172-.172.614.908.785.957a4.8 4.8 0 0 0 .761.172.385.385 0 0 0 .418-.295c.049-.245-.2-.466.147-.638a2.631 2.631 0 0 1 .883-.392c.246 0 .909-.3.442.613s-.417 1.056-.343 1.3a3.914 3.914 0 0 1-.27 2.037c-.344.687-.295.712-.614.81s-.638.049-.761.1a3.794 3.794 0 0 1-.736.1c-.123 0-.515-.024-.515-.024a2 2 0 0 0-1.08.1.5.5 0 0 0-.114.068 2.17 2.17 0 0 0-.77-.289c-1.4-.368-1.276-.417-1.6-.417s.024.27-.54-.172-.172.172-.835-.466-.736-.853-1.153-.66a.941.941 0 0 0-.614.782c-.073.369.565.884-.368.761s.074-.319-1.006-.761-1.031-.239-1.129-.782.344-.371-.515-.887-.59.148-1.178-.736-.884-.981-.442-1.35a1.1 1.1 0 0 0 .491-1.325c-.2-.614.269-1.006-.712-.957s-.54-.442-1.178-.368.147-.393-.957-.393-.344-.27-1.252-.2a6.8 6.8 0 0 1-1.252-.025c-.2.025-.343.049-.564-.417s-.108-1.325-.484-.638-.424.564-.964.81-.516-.614-.835.515-.221.835-.319 1.129-.343.319-.785.565-.221-.27-.786.564-1.644.785-1.6 2.749.341 3.068 0 4.589a9.769 9.769 0 0 0 1.327 6.283c1.227 2.013.54 3.436 1.963 3.78s1.669 1.423 2.651 1.423 1.619-.589 2.356.933-.393.982 1.816 2.454-.589.589 2.552 5.4 1.129 3.779 3.142 5.792 4.123 4.319 6.725 5.694a37.828 37.828 0 0 0 6.767 2.429l1.464-.589 1.058-.39.221.1h.4s.589.5.589 0c0-1-.295-1.035-.442-1.145a8.417 8.417 0 0 1-.663-.794l-.405-.415.148-.355s-.037.08.257-.03.737-.162.884-.31a4.865 4.865 0 0 0 .442-.449c.368-.4.11-.409.552-.482s.626.255.662 0 .295-.59.185-.774-.4-.59-.553-.848a4.992 4.992 0 0 0-.552-1.1c-.368-.479-.368-.037-.883-.847l-.516-.81-.4-1.252a3.351 3.351 0 0 0 .552-.626 10.524 10.524 0 0 1 .553-1.141c.032-.052.072-.121.111-.188-.191-.173-.439-.419-.828-.785-1.146-1.126-.426-.94-2-.868-1.43.086-3.555-.181-4.649-.1a4.306 4.306 0 0 0 .227 1.113l.058-.112.9.086c.736.54.847.417.626.81s-.037.663-.626.589a11.11 11.11 0 0 1-.54-.078 26.648 26.648 0 0 1 1.012 3.346c-.3 0-.54 0-.864-.018-.452-.014-.425.02-.652-.352l-.159.3a1.919 1.919 0 0 1-.724-.209c-.515-.221.025-.11.1-.38s.185-.3.185-.3a2.877 2.877 0 0 0-.381-.859c-.286-.457-.318-.2-.51-.82-.92-1.379-1.95-2.9-2.272-3.285-1.081-.067-4.036-.064-4.825-.526-.372-.219-.946-.632-.581-1.049.908-1.015 3.343-.589 5.013-.493.671.041.515-.009.94-.546.473-.573 3.771-4.8 4.108-4.932.133-.023 1.033.044 1.213.045-.066.208-.144.424-.225.639.03-.017.05-.035.084-.052 0 0 .5.258.479.4s-.074.172-.177.338-.173-.055-.495-.184a.323.323 0 0 1-.072-.05c-.049.116-.1.235-.145.349l-1.113 2.778a9.134 9.134 0 0 0-.539 1.414c.781.006 1.537.059 2.342.077h.108c.008-.019.007-.037.017-.056l.039.058c3.781.117 2.75.812 4.344-.514.919-.738 1.212-1.313 2.072-.694a4.466 4.466 0 0 0-.709 3.97 4.757 4.757 0 0 0 .945-.857 11.356 11.356 0 0 1 1.077-1.031 2.891 2.891 0 0 0 .4-.478s.174-.194.391-.478zm14.505-55.647c.591-.176.453-.19 1.257.55.7.668.262.561 1.207.507.858-.061 2.136.085 2.792.032.019-.513-.92-2.687-1.032-3.444h.52c.3.006.245-.023.448.294.458.676 1.924 2.841 2.243 3.215a11.157 11.157 0 0 1 2.9.284c.224.129.572.372.356.626-.538.615-2 .376-3.007.33-.4-.02-.309.008-.561.334s-1.993 2.6-2.375 2.946l.221.043a5.2 5.2 0 0 0 .123 1.473 4.69 4.69 0 0 1 .319.932c.074.393-.074.417-.491.908-.3.359-.389.835-.689 1.247a.426.426 0 0 1-.026.079l-.1.075a1.661 1.661 0 0 1-.311.268c-.575.377.05-.079.311-.268a1.815 1.815 0 0 0 .129-.154 21.212 21.212 0 0 0 .345-2.97c.221-2.8-.466-.191-.785-1.271l.2-.336h-.032a8.6 8.6 0 0 1 .321-.867l.65-1.676a5.525 5.525 0 0 0 .314-.853c-.469 0-.924-.025-1.407-.03-2.4-.033-1.741-.484-2.7.336-.547.449-.719.8-1.24.43a2.65 2.65 0 0 0 .1-3.04zm-1.386 21.577l.441.543s-.245.733-1.718.544 0-.376 1.277-1.087zm-10.9-16.246c.263-.23.519-.509.7-.492.2.018.7-.332.865.276s.663.846-.073.46-.46-.608-.829-.368c-.242.159-.583.075-.661.124zm-.367 26.17s.711.138.687.433a.628.628 0 0 1-.467.638c-.343.1-.049-.123-.22-.444s-.293-.29.002-.627zm-10.64-17.411s.644.431.644.559-.11.129-.552.332-.165-.055-.4-.276-.003-.332.31-.615zm-.951-2.564a1.79 1.79 0 0 1 .657.786c.19.5.006.08-.387.638s-.208-.1-.233-.147-.214-.51-.245-.632a.738.738 0 0 1 .21-.645zm-1.288 2.031c-.528.473-.344.019-.417 0s-.013-.3-.037-.7-.037-.154.184-.571a2.762 2.762 0 0 1 .546.387c.11.141.239.239.264.358s-.01.054-.538.526zm-15.8 17.171c-.046.12-.073.046-.5-.083s.009-.083.266-.35a1.906 1.906 0 0 1 .323.148c.033.036-.041.165-.087.285zm.8.9s-.138.092-.386-.12-.12-.294 0-.478l.441.082zm2.218 16.594c-.147.147-.423.11-.589.11s-.239-.46-.442-.865a1.915 1.915 0 0 1-.294-.9 3.824 3.824 0 0 1 .552.221c.055.055.055.129.11.5s.442.276.9.442-.087.347-.234.494zm2.227-2.246c-.055.2-.4.221-.607-.313-.1-.266-.138-.289-.147-.287a.445.445 0 0 0 .018-.136s.773.055.736.2.059.336.003.538zM162.7 439.6c.294.417 0 0 1.067 1.08s-.086.307-.135.307a2.839 2.839 0 0 1-1.043-.822c-.257-.418-.494-.378-.552-1.117-.037-.471.363.13.663.552z"/></g></g></g></g></g></g></svg>